<svg width="16" height="16" viewBox="0 0 16 16" fill="none" xmlns="http://www.w3.org/2000/svg">
<path fill-rule="evenodd" clip-rule="evenodd" d="M11.0894 15.3736C10.1253 15.7912 9.09425 16 7.99613 16C6.90317 16 5.87466 15.7912 4.91058 15.3736C3.94651 14.956 3.09586 14.3786 2.35863 13.6414C1.6214 12.9041 1.04398 12.0522 0.62639 11.0855C0.208797 10.1189 0 9.08909 0 7.99613C0 6.90317 0.208797 5.87466 0.62639 4.91058C1.04398 3.94651 1.62011 3.09586 2.35476 2.35863C3.08942 1.6214 3.93878 1.04398 4.90285 0.62639C5.86692 0.208797 6.89802 0 7.99613 0C9.08909 0 10.1189 0.208797 11.0855 0.62639C12.0522 1.04398 12.9041 1.6214 13.6414 2.35863C14.3786 3.09586 14.956 3.94651 15.3736 4.91058C15.7912 5.87466 16 6.90317 16 7.99613C16 9.08909 15.7912 10.1189 15.3736 11.0855C14.956 12.0522 14.3786 12.9041 13.6414 13.6414C12.9041 14.3786 12.0535 14.956 11.0894 15.3736ZM6.19816 11.4799C6.73691 11.8022 7.33623 11.9633 7.99613 11.9633C8.65088 11.9633 9.24762 11.8022 9.78637 11.4799C10.3251 11.1577 10.7556 10.726 11.0778 10.1846C11.4 9.64331 11.5611 9.04527 11.5611 8.39053C11.5611 8.2204 11.4993 8.07604 11.3755 7.95747C11.2518 7.83889 11.11 7.7796 10.9502 7.7796C10.7749 7.7796 10.628 7.83889 10.5094 7.95747C10.3908 8.07604 10.3316 8.2204 10.3316 8.39053C10.3316 8.82359 10.2272 9.21669 10.0184 9.56984C9.80957 9.92299 9.5286 10.2053 9.17545 10.4166C8.8223 10.628 8.42919 10.7337 7.99613 10.7337C7.56307 10.7337 7.16997 10.628 6.81682 10.4166C6.46367 10.2053 6.1827 9.92299 5.9739 9.56984C5.7651 9.21669 5.66071 8.82359 5.66071 8.39053C5.66071 7.97809 5.75608 7.60045 5.94683 7.25761C6.13759 6.91477 6.39536 6.64024 6.72015 6.43403C7.04495 6.22781 7.40583 6.11954 7.8028 6.10923C7.90591 6.10408 7.99613 6.1015 8.07347 6.1015L7.43934 6.73562C7.34654 6.83357 7.30015 6.95473 7.30015 7.09908C7.30015 7.26921 7.35557 7.40583 7.46641 7.50894C7.57725 7.61205 7.71258 7.66361 7.8724 7.66361C8.02191 7.66361 8.15338 7.6069 8.2668 7.49347L9.77477 5.97777C9.88819 5.87466 9.94361 5.74062 9.94103 5.57564C9.93846 5.41067 9.88303 5.27147 9.77477 5.15805L8.28226 3.64234C8.23071 3.58563 8.16884 3.53923 8.09667 3.50314C8.02449 3.46705 7.94716 3.44901 7.86467 3.44901C7.69969 3.44901 7.56436 3.50443 7.45868 3.61527C7.35299 3.72612 7.30015 3.85371 7.30015 3.99807C7.30015 4.08571 7.31432 4.16175 7.34268 4.2262C7.37103 4.29064 7.40583 4.34864 7.44708 4.40019L7.91107 4.87965C7.88529 4.8745 7.85436 4.87063 7.81827 4.86805C7.78218 4.86547 7.74609 4.86676 7.71 4.87192C7.12744 4.88739 6.58611 5.05365 6.08603 5.37071C5.58595 5.68777 5.18511 6.10665 4.88352 6.62736C4.58192 7.14806 4.43113 7.72547 4.43113 8.35959C4.43113 9.02465 4.59095 9.63042 4.91058 10.1769C5.23022 10.7234 5.65942 11.1577 6.19816 11.4799Z" fill="#AAAAAA"/>
</svg>
