<svg width="24" height="21" viewBox="0 0 24 21" fill="none" xmlns="http://www.w3.org/2000/svg">
<path fill-rule="evenodd" clip-rule="evenodd" d="M19.9347 2C20.2921 2 20.5589 1.90835 20.7354 1.72506C20.9118 1.54176 21 1.26681 21 0.900222V1.09978C21 0.733186 20.9118 0.458241 20.7354 0.274945C20.5589 0.0916482 20.2921 0 19.9347 0H1.06531C0.710206 0 0.443879 0.0916482 0.266327 0.274945C0.0887758 0.458241 0 0.733186 0 1.09978V0.900222C0 1.26681 0.0887758 1.54176 0.266327 1.72506C0.443879 1.90835 0.710206 2 1.06531 2H19.9347Z" fill="#888888"/>
<path fill-rule="evenodd" clip-rule="evenodd" d="M23.2061 20.2423C22.6768 20.7474 21.8762 21 20.8041 21H3.19593C2.13062 21 1.33164 20.7474 0.798982 20.2423C0.266327 19.7371 0 18.9794 0 17.969V6.03096C0 5.02064 0.266327 4.2629 0.798982 3.75774C1.33164 3.25258 2.13062 3 3.19593 3H20.8041C21.8762 3 22.6768 3.25258 23.2061 3.75774C23.7354 4.2629 24 5.02064 24 6.03096V17.969C24 18.9794 23.7354 19.7371 23.2061 20.2423ZM19 14C20.1046 14 21 13.1046 21 12C21 10.8954 20.1046 10 19 10C17.8954 10 17 10.8954 17 12C17 13.1046 17.8954 14 19 14Z" fill="#888888"/>
</svg>
