<svg width="16" height="18" viewBox="0 0 16 18" fill="none" xmlns="http://www.w3.org/2000/svg">
<path fill-rule="evenodd" clip-rule="evenodd" d="M15.6092 14.1273C15.3486 14.3671 14.9958 14.487 14.5506 14.487H1.44936C1.00424 14.487 0.651399 14.3671 0.39084 14.1273C0.13028 13.8875 0 13.5725 0 13.1822C0 12.8755 0.0732824 12.5855 0.219847 12.3123C0.366412 12.039 0.555047 11.7756 0.785751 11.5218C1.01645 11.2681 1.25666 11.027 1.50636 10.7983C1.70721 10.6032 1.86056 10.348 1.96641 10.033C2.07226 9.71794 2.15505 9.36524 2.21476 8.97491C2.27447 8.58457 2.32604 8.18587 2.36947 7.77881C2.42918 6.80297 2.57574 5.92193 2.80916 5.13569C3.04258 4.34944 3.38185 3.68587 3.82697 3.14498C4.2721 2.60409 4.83664 2.20539 5.52061 1.94888C5.69975 1.39126 6.0078 0.927045 6.44478 0.556227C6.88176 0.185409 7.39881 0 7.99593 0C8.59847 0 9.11959 0.185409 9.55929 0.556227C9.99898 0.927045 10.3057 1.39126 10.4794 1.94888C11.1688 2.20539 11.7347 2.60409 12.1771 3.14498C12.6195 3.68587 12.9588 4.34944 13.1949 5.13569C13.431 5.92193 13.5763 6.80297 13.6305 7.77881C13.6794 8.18587 13.7323 8.58457 13.7893 8.97491C13.8463 9.36524 13.9291 9.71794 14.0377 10.033C14.1462 10.348 14.3009 10.6032 14.5018 10.7983C14.7515 11.027 14.9903 11.2681 15.2183 11.5218C15.4463 11.7756 15.6336 12.039 15.7802 12.3123C15.9267 12.5855 16 12.8755 16 13.1822C16 13.5725 15.8697 13.8875 15.6092 14.1273ZM9.3313 17.678C8.94046 17.8927 8.49534 18 7.99593 18C7.50195 18 7.05954 17.8927 6.6687 17.678C6.27786 17.4633 5.96302 17.1789 5.72417 16.8248C5.48533 16.4707 5.34962 16.0846 5.31705 15.6664H10.683C10.645 16.0846 10.5079 16.4707 10.2718 16.8248C10.0356 17.1789 9.72214 17.4633 9.3313 17.678Z" fill="#0071E6"/>
</svg>
