<svg width="27" height="24" viewBox="0 0 27 24" fill="none" xmlns="http://www.w3.org/2000/svg">
<path fill-rule="evenodd" clip-rule="evenodd" d="M17.0045 23.3716C16.6182 23.7905 16.0834 24 15.3999 24H2.17293C1.48948 24 0.956459 23.7905 0.573875 23.3716C0.191292 22.9527 0 22.38 0 21.6534V2.34662C0 1.62002 0.191292 1.04727 0.573875 0.62836C0.956459 0.209453 1.48948 0 2.17293 0H15.3999C16.0834 0 16.6182 0.209453 17.0045 0.62836C17.3908 1.04727 17.584 1.62002 17.584 2.34662V21.6534C17.584 22.38 17.3908 22.9527 17.0045 23.3716ZM4.99216 6.62836H7.24309C7.5551 6.62836 7.7111 6.46895 7.7111 6.15014V4.02595C7.7111 3.70714 7.5551 3.54773 7.24309 3.54773H4.99216C4.68758 3.54773 4.53529 3.70714 4.53529 4.02595V6.15014C4.53529 6.46895 4.68758 6.62836 4.99216 6.62836ZM12.6587 6.62836H10.4078C10.1032 6.62836 9.95089 6.46895 9.95089 6.15014V4.02595C9.95089 3.70714 10.1032 3.54773 10.4078 3.54773H12.6587C12.9707 3.54773 13.1267 3.70714 13.1267 4.02595V6.15014C13.1267 6.46895 12.9707 6.62836 12.6587 6.62836ZM26.4206 23.3716C26.0343 23.7905 25.5068 24 24.8382 24H18.5646C18.78 23.6515 18.9435 23.2827 19.0549 22.8934C19.1663 22.5042 19.222 22.0908 19.222 21.6534V5.57183H24.8382C25.5068 5.57183 26.0343 5.78128 26.4206 6.20019C26.8069 6.61909 27 7.19184 27 7.91844V21.6534C27 22.38 26.8069 22.9527 26.4206 23.3716ZM7.24309 11.1659H4.99216C4.68758 11.1659 4.53529 11.0102 4.53529 10.6988V8.56349C4.53529 8.25209 4.68758 8.09639 4.99216 8.09639H7.24309C7.5551 8.09639 7.7111 8.25209 7.7111 8.56349V10.6988C7.7111 11.0102 7.5551 11.1659 7.24309 11.1659ZM10.4078 11.1659H12.6587C12.9707 11.1659 13.1267 11.0102 13.1267 10.6988V8.56349C13.1267 8.25209 12.9707 8.09639 12.6587 8.09639H10.4078C10.1032 8.09639 9.95089 8.25209 9.95089 8.56349V10.6988C9.95089 11.0102 10.1032 11.1659 10.4078 11.1659ZM24.0025 11.6997H22.1861C21.9261 11.6997 21.7961 11.57 21.7961 11.3105V9.54217C21.7961 9.29008 21.9261 9.16404 22.1861 9.16404H24.0025C24.2625 9.16404 24.3925 9.29008 24.3925 9.54217V11.3105C24.3925 11.57 24.2625 11.6997 24.0025 11.6997ZM4.99216 15.7146H7.24309C7.5551 15.7146 7.7111 15.5589 7.7111 15.2475V13.1121C7.7111 12.8007 7.5551 12.645 7.24309 12.645H4.99216C4.68758 12.645 4.53529 12.8007 4.53529 13.1121V15.2475C4.53529 15.5589 4.68758 15.7146 4.99216 15.7146ZM12.6587 15.7146H10.4078C10.1032 15.7146 9.95089 15.5589 9.95089 15.2475V13.1121C9.95089 12.8007 10.1032 12.645 10.4078 12.645H12.6587C12.9707 12.645 13.1267 12.8007 13.1267 13.1121V15.2475C13.1267 15.5589 12.9707 15.7146 12.6587 15.7146ZM22.1861 16.0482H24.0025C24.2625 16.0482 24.3925 15.9222 24.3925 15.6701V13.9018C24.3925 13.6497 24.2625 13.5236 24.0025 13.5236H22.1861C21.9261 13.5236 21.7961 13.6497 21.7961 13.9018V15.6701C21.7961 15.9222 21.9261 16.0482 22.1861 16.0482ZM12.8258 22.0093H4.83615V18.5171C4.83615 18.2576 4.91601 18.05 5.07573 17.8943C5.23545 17.7386 5.4416 17.6608 5.69418 17.6608H11.9121C12.2018 17.6608 12.4265 17.7386 12.5863 17.8943C12.746 18.05 12.8258 18.2576 12.8258 18.5171V22.0093ZM22.1861 20.4078H24.0025C24.2625 20.4078 24.3925 20.278 24.3925 20.0185V18.2614C24.3925 18.0019 24.2625 17.8721 24.0025 17.8721H22.1861C21.9261 17.8721 21.7961 18.0019 21.7961 18.2614V20.0185C21.7961 20.278 21.9261 20.4078 22.1861 20.4078Z" fill="#0052A7"/>
</svg>
