<svg width="19" height="24" viewBox="0 0 19 24" fill="none" xmlns="http://www.w3.org/2000/svg">
<path fill-rule="evenodd" clip-rule="evenodd" d="M18.0826 23.0752C17.471 23.6917 16.572 24 15.3857 24H3.61431C2.42059 24 1.51978 23.6917 0.911867 23.0752C0.303956 22.4587 0 21.5524 0 20.3563V3.64375C0 2.45501 0.303956 1.55053 0.911867 0.930318C1.51978 0.310106 2.42059 0 3.61431 0H8.65445V8.39502C8.65445 9.76834 9.33605 10.455 10.6992 10.455H19V20.3563C19 21.5524 18.6942 22.4587 18.0826 23.0752ZM18.5689 8.07384C18.7458 8.32487 18.8489 8.57222 18.8784 8.81587H10.9203C10.4929 8.81587 10.2792 8.60914 10.2792 8.19566V0.110752C10.5298 0.140286 10.7821 0.243655 11.0364 0.420858C11.2906 0.598062 11.5577 0.82695 11.8377 1.10752L17.8726 7.25427C18.16 7.54961 18.3921 7.8228 18.5689 8.07384ZM13.0646 20.467C13.0646 21.1758 12.7367 21.5302 12.0809 21.5302H7.28389C6.62808 21.5302 6.30017 21.1758 6.30017 20.467V16.779C6.30017 16.144 6.56176 15.8006 7.08493 15.749V14.6857C7.08493 13.8145 7.32441 13.1131 7.80337 12.5814C8.28234 12.0498 8.90867 11.784 9.68237 11.784C10.4561 11.784 11.0824 12.0498 11.5614 12.5814C12.0403 13.1131 12.2798 13.8145 12.2798 14.6857V15.749C12.803 15.8006 13.0646 16.144 13.0646 16.779V20.467ZM11.1524 14.5971V15.7268H8.21233V14.5971C8.21233 14.0803 8.34681 13.665 8.61576 13.3512C8.88472 13.0374 9.24026 12.8805 9.68237 12.8805C10.1245 12.8805 10.48 13.0374 10.749 13.3512C11.0179 13.665 11.1524 14.0803 11.1524 14.5971Z" fill="#0052A7"/>
</svg>
