<svg width="27" height="24" viewBox="0 0 27 24" fill="none" xmlns="http://www.w3.org/2000/svg">
<path fill-rule="evenodd" clip-rule="evenodd" d="M22.165 23.4876C21.3762 23.8293 20.5325 24.0001 19.6341 24.0001C18.7398 24.0001 17.8983 23.8293 17.1095 23.4876C16.3208 23.1459 15.6248 22.6735 15.0216 22.0703C14.4184 21.4671 13.946 20.7701 13.6043 19.9792C13.2626 19.1883 13.0918 18.3457 13.0918 17.4515C13.0918 16.5572 13.2626 15.7157 13.6043 14.9269C13.946 14.1381 14.4173 13.4422 15.0184 12.839C15.6195 12.2358 16.3144 11.7633 17.1032 11.4217C17.892 11.08 18.7356 10.9092 19.6341 10.9092C20.5283 10.9092 21.3709 11.08 22.1618 11.4217C22.9527 11.7633 23.6497 12.2358 24.2529 12.839C24.8561 13.4422 25.3285 14.1381 25.6702 14.9269C26.0119 15.7157 26.1827 16.5572 26.1827 17.4515C26.1827 18.3457 26.0119 19.1883 25.6702 19.9792C25.3285 20.7701 24.8561 21.4671 24.2529 22.0703C23.6497 22.6735 22.9537 23.1459 22.165 23.4876ZM19.4221 21.058C19.4791 21.1128 19.5497 21.1402 19.6341 21.1402C19.7185 21.1402 19.7891 21.1128 19.846 21.058C19.903 21.0031 19.9315 20.9314 19.9315 20.8428V20.3999C20.4714 20.3493 20.9185 20.1774 21.2728 19.8843C21.6271 19.5911 21.8043 19.1936 21.8043 18.6916C21.8043 18.2445 21.6609 17.8859 21.3741 17.616C21.0872 17.346 20.657 17.1583 20.0833 17.0529L19.9315 17.0212V15.4015C20.1424 15.4394 20.3185 15.5175 20.4598 15.6356C20.6011 15.7537 20.7034 15.9098 20.7667 16.1038C20.8637 16.3358 21.0218 16.4518 21.2412 16.4518C21.3804 16.4518 21.4911 16.4107 21.5734 16.3284C21.6556 16.2461 21.6967 16.1417 21.6967 16.0152C21.6967 15.9772 21.6936 15.9393 21.6873 15.9013C21.6809 15.8634 21.6714 15.8254 21.6588 15.7874C21.5702 15.45 21.3709 15.1674 21.0609 14.9396C20.7508 14.7118 20.3744 14.5768 19.9315 14.5346V14.0917C19.9315 14.0032 19.903 13.9304 19.846 13.8735C19.7891 13.8165 19.7185 13.788 19.6341 13.788C19.5497 13.788 19.4791 13.8165 19.4221 13.8735C19.3652 13.9304 19.3367 14.0032 19.3367 14.0917V14.5346C18.8179 14.581 18.3908 14.7529 18.0555 15.0503C17.7201 15.3477 17.5524 15.7284 17.5524 16.1924C17.5524 16.6184 17.6938 16.9611 17.9764 17.2205C18.259 17.4799 18.6745 17.6729 19.2228 17.7995L19.3367 17.8248V19.5458C19.0752 19.5036 18.8674 19.4161 18.7135 19.2832C18.5595 19.1503 18.4551 18.989 18.4003 18.7992C18.3539 18.6811 18.2917 18.5925 18.2136 18.5334C18.1356 18.4744 18.0396 18.4448 17.9258 18.4448C17.7866 18.4448 17.6758 18.486 17.5936 18.5682C17.5113 18.6505 17.4702 18.7591 17.4702 18.8941C17.4702 18.932 17.4734 18.97 17.4797 19.008C17.486 19.0459 17.4955 19.0839 17.5082 19.1218C17.5672 19.3581 17.6822 19.5658 17.853 19.7451C18.0238 19.9243 18.2347 20.0709 18.4857 20.1848C18.7367 20.2987 19.0204 20.3683 19.3367 20.3936V20.8428C19.3367 20.9314 19.3652 21.0031 19.4221 21.058ZM19.3367 16.8694V15.3951C19.0878 15.4331 18.8906 15.5196 18.7451 15.6546C18.5996 15.7895 18.5268 15.9456 18.5268 16.1228C18.5268 16.2999 18.5891 16.4476 18.7135 16.5657C18.8379 16.6838 19.0309 16.7808 19.2924 16.8567L19.3367 16.8694ZM20.6053 19.28C20.4556 19.4192 20.231 19.5078 19.9315 19.5458V17.9703L20.058 18.0019C20.3448 18.0779 20.5452 18.177 20.6591 18.2993C20.773 18.4216 20.8299 18.5756 20.8299 18.7612C20.8299 18.9679 20.7551 19.1408 20.6053 19.28Z" fill="#0052A7"/>
<path fill-rule="evenodd" clip-rule="evenodd" d="M9.07316 12.5784C8.28437 12.9201 7.44075 13.0909 6.54229 13.0909C5.64805 13.0909 4.80654 12.9201 4.01775 12.5784C3.22896 12.2367 2.53298 11.7643 1.92979 11.1611C1.3266 10.5579 0.854168 9.86089 0.512501 9.06999C0.170833 8.2791 0 7.43653 0 6.54229C0 5.64805 0.170833 4.80654 0.512501 4.01775C0.854168 3.22896 1.32554 2.53298 1.92662 1.92979C2.5277 1.3266 3.22264 0.854168 4.01142 0.512501C4.80021 0.170833 5.64383 0 6.54229 0C7.43653 0 8.2791 0.170833 9.06999 0.512501C9.86089 0.854168 10.5579 1.3266 11.1611 1.92979C11.7643 2.53298 12.2367 3.22896 12.5784 4.01775C12.9201 4.80654 13.0909 5.64805 13.0909 6.54229C13.0909 7.43653 12.9201 8.2791 12.5784 9.06999C12.2367 9.86089 11.7643 10.5579 11.1611 11.1611C10.5579 11.7643 9.86195 12.2367 9.07316 12.5784ZM5.52045 9.09214C6.06248 9.46333 6.69836 9.64893 7.42809 9.64893C7.59682 9.64893 7.74445 9.63733 7.871 9.61413C7.99754 9.59093 8.10299 9.55824 8.18736 9.51606C8.36452 9.4317 8.4531 9.29883 8.4531 9.11745C8.4531 9.00778 8.42041 8.9192 8.35502 8.85171C8.28964 8.78422 8.20212 8.74415 8.09245 8.73149C8.01652 8.71884 7.92161 8.71567 7.80772 8.722C7.69384 8.72833 7.56729 8.72938 7.42809 8.72516C6.98097 8.72516 6.58658 8.6176 6.24491 8.40248C5.90325 8.18735 5.66703 7.86889 5.53627 7.44708H7.51667C7.60526 7.44708 7.67802 7.41649 7.73496 7.35533C7.79191 7.29417 7.82038 7.2193 7.82038 7.13072C7.82038 7.04214 7.79191 6.96832 7.73496 6.90927C7.67802 6.85021 7.60526 6.82069 7.51667 6.82069H5.39707C5.39286 6.78272 5.38969 6.73949 5.38758 6.69098C5.38547 6.64247 5.38442 6.59502 5.38442 6.54862L5.38521 6.47427L5.38758 6.40309C5.38969 6.35669 5.39286 6.3124 5.39707 6.27022H7.51667C7.60526 6.27022 7.67802 6.2407 7.73496 6.18164C7.79191 6.12259 7.82038 6.05088 7.82038 5.96652C7.82038 5.8695 7.79191 5.79252 7.73496 5.73558C7.67802 5.67863 7.60526 5.65016 7.51667 5.65016H5.52994C5.66492 5.22835 5.9043 4.90988 6.24808 4.69476C6.59185 4.47963 6.9873 4.36996 7.43442 4.36575C7.5694 4.36575 7.69594 4.36891 7.81405 4.37524C7.93216 4.38156 8.02707 4.3784 8.09877 4.36575C8.20423 4.35309 8.28859 4.31302 8.35186 4.24553C8.41513 4.17804 8.44677 4.08735 8.44677 3.97346C8.44677 3.8891 8.42779 3.81212 8.38982 3.74252C8.35186 3.67292 8.28015 3.61281 8.1747 3.5622C8.09877 3.52423 7.99859 3.49365 7.87416 3.47045C7.74973 3.44725 7.60104 3.43565 7.42809 3.43565C6.94301 3.43565 6.49484 3.52001 6.08357 3.68874C5.67231 3.85746 5.32431 4.10633 5.03959 4.43534C4.75487 4.76436 4.55556 5.1693 4.44167 5.65016H3.77099C3.68241 5.65016 3.60965 5.67863 3.5527 5.73558C3.49576 5.79252 3.46729 5.8695 3.46729 5.96652C3.46729 6.05088 3.49576 6.12259 3.5527 6.18164C3.60965 6.2407 3.68241 6.27022 3.77099 6.27022H4.35942C4.3552 6.31662 4.35309 6.36091 4.35309 6.40309V6.54229C4.35309 6.59713 4.35415 6.6488 4.35625 6.69731C4.35836 6.74581 4.35942 6.78694 4.35942 6.82069H3.77099C3.68241 6.82069 3.60965 6.85021 3.5527 6.90927C3.49576 6.96832 3.46729 7.04214 3.46729 7.13072C3.46729 7.2193 3.49576 7.29417 3.5527 7.35533C3.60965 7.41649 3.68241 7.44708 3.77099 7.44708H4.448C4.62094 8.17259 4.97843 8.72095 5.52045 9.09214Z" fill="#0052A7"/>
<path d="M18.8423 8.72718C19.1136 8.72718 19.3291 8.64248 19.4887 8.47308C19.6484 8.30368 19.7282 8.09268 19.7282 7.84006C19.7282 7.69147 19.6992 7.56293 19.6413 7.45446C19.5834 7.34598 19.512 7.24865 19.4273 7.16247L18.4439 6.15052L18.1065 5.81925L18.9229 5.8563H23.047C23.3324 5.8563 23.5627 5.77012 23.7379 5.59775C23.9131 5.42537 24.0007 5.19654 24.0007 4.91123C24.0007 4.62593 23.9131 4.39709 23.7379 4.22472C23.5627 4.05234 23.3324 3.96616 23.047 3.96616H18.9229L18.1079 4.00685L18.4439 3.6764L19.4273 2.65554C19.512 2.56935 19.5834 2.47202 19.6413 2.36355C19.6992 2.25507 19.7282 2.12654 19.7282 1.97794C19.7282 1.7283 19.6484 1.51803 19.4887 1.34715C19.3291 1.17626 19.1136 1.09082 18.8423 1.09082C18.7378 1.09082 18.6318 1.11608 18.5244 1.1666C18.4171 1.21713 18.3182 1.28994 18.2277 1.38504L15.532 4.22026C15.4557 4.3005 15.3935 4.40452 15.3455 4.53231C15.2975 4.6601 15.2734 4.78641 15.2734 4.91123C15.2734 5.03902 15.2975 5.16607 15.3455 5.29238C15.3935 5.41869 15.4557 5.52196 15.532 5.6022L18.2277 8.43296C18.4142 8.62911 18.6191 8.72718 18.8423 8.72718Z" fill="#0052A7"/>
<path d="M7.3393 22.9088C7.06803 22.9088 6.85257 22.8241 6.69292 22.6547C6.53326 22.4853 6.45344 22.2743 6.45344 22.0217C6.45344 21.8731 6.4824 21.7446 6.54033 21.6361C6.59826 21.5276 6.66961 21.4303 6.75438 21.3441L7.73773 20.3322L8.07517 20.0009L7.25877 20.0379H3.13461C2.84922 20.0379 2.61892 19.9518 2.44372 19.7794C2.26853 19.607 2.18093 19.3782 2.18093 19.0929C2.18093 18.8076 2.26853 18.5787 2.44372 18.4064C2.61892 18.234 2.84922 18.1478 3.13461 18.1478H7.25877L8.07372 18.1885L7.73773 17.858L6.75438 16.8372C6.66961 16.751 6.59826 16.6537 6.54033 16.5452C6.4824 16.4367 6.45344 16.3082 6.45344 16.1596C6.45344 15.9099 6.53326 15.6997 6.69292 15.5288C6.85257 15.3579 7.06803 15.2725 7.3393 15.2725C7.44386 15.2725 7.54982 15.2977 7.6572 15.3482C7.76458 15.3988 7.86348 15.4716 7.9539 15.5667L10.6496 18.4019C10.7259 18.4821 10.7881 18.5862 10.8361 18.714C10.8842 18.8417 10.9082 18.9681 10.9082 19.0929C10.9082 19.2207 10.8842 19.3477 10.8361 19.474C10.7881 19.6003 10.7259 19.7036 10.6496 19.7838L7.9539 22.6146C7.7674 22.8108 7.56254 22.9088 7.3393 22.9088Z" fill="#0052A7"/>
</svg>
