<svg width="18" height="18" viewBox="0 0 18 18" fill="none" xmlns="http://www.w3.org/2000/svg">
<path fill-rule="evenodd" clip-rule="evenodd" d="M12.4794 17.2981C11.3943 17.766 10.2344 18 9 18C7.76555 18 6.60574 17.766 5.52057 17.2981C4.43541 16.8301 3.47799 16.1828 2.64833 15.356C1.81866 14.5292 1.16986 13.5718 0.701914 12.4837C0.233971 11.3957 0 10.2344 0 9C0 7.77129 0.233971 6.61292 0.701914 5.52488C1.16986 4.43684 1.81722 3.47943 2.64402 2.65263C3.47081 1.82584 4.42823 1.17703 5.51627 0.70622C6.60431 0.235407 7.76268 0 8.99139 0C10.2258 0 11.3871 0.235407 12.4751 0.70622C13.5632 1.17703 14.522 1.82584 15.3517 2.65263C16.1813 3.47943 16.8301 4.43684 17.2981 5.52488C17.766 6.61292 18 7.77129 18 9C18 10.2344 17.766 11.3957 17.2981 12.4837C16.8301 13.5718 16.1813 14.5292 15.3517 15.356C14.522 16.1828 13.5646 16.8301 12.4794 17.2981ZM6.28708 15.4421C7.1311 15.8038 8.03541 15.9847 9 15.9847C9.96459 15.9847 10.8703 15.8038 11.7172 15.4421C12.5641 15.0804 13.3062 14.5809 13.9435 13.9435C14.5809 13.3062 15.0789 12.5656 15.4378 11.7215C15.7967 10.8775 15.9761 9.97034 15.9761 9C15.9761 8.03541 15.7967 7.1311 15.4378 6.28708C15.0789 5.44306 14.5794 4.70096 13.9392 4.06077C13.299 3.42057 12.5569 2.92105 11.7129 2.5622C10.8689 2.20335 9.96172 2.02392 8.99139 2.02392C8.02679 2.02392 7.12249 2.20335 6.27847 2.5622C5.43445 2.92105 4.69522 3.42057 4.06077 4.06077C3.42632 4.70096 2.92823 5.44306 2.56651 6.28708C2.20478 7.1311 2.02392 8.03541 2.02392 9C2.02392 9.97034 2.20478 10.8775 2.56651 11.7215C2.92823 12.5656 3.42775 13.3062 4.06507 13.9435C4.70239 14.5809 5.44306 15.0804 6.28708 15.4421ZM8.96555 6.20096C9.31005 6.20096 9.6 6.08182 9.83541 5.84354C10.0708 5.60526 10.1885 5.31962 10.1885 4.9866C10.1885 4.64211 10.0708 4.35072 9.83541 4.11244C9.6 3.87416 9.31005 3.75502 8.96555 3.75502C8.63254 3.75502 8.34689 3.87416 8.10861 4.11244C7.87034 4.35072 7.7512 4.64211 7.7512 4.9866C7.7512 5.31962 7.87034 5.60526 8.10861 5.84354C8.34689 6.08182 8.63254 6.20096 8.96555 6.20096ZM11.4761 13.4354C11.3354 13.5675 11.1589 13.6335 10.9464 13.6335H7.46699C7.26029 13.6335 7.08517 13.5675 6.94163 13.4354C6.79809 13.3033 6.72632 13.1311 6.72632 12.9187C6.72632 12.7177 6.79809 12.5483 6.94163 12.4105C7.08517 12.2727 7.26029 12.2038 7.46699 12.2038H8.45742V8.89665H7.62201C7.41531 8.89665 7.24019 8.82919 7.09665 8.69426C6.95311 8.55933 6.88134 8.38565 6.88134 8.17321C6.88134 7.97225 6.95311 7.80431 7.09665 7.66938C7.24019 7.53445 7.41531 7.46699 7.62201 7.46699H9.2756C9.53971 7.46699 9.74067 7.55024 9.87847 7.71675C10.0163 7.88325 10.0852 8.10718 10.0852 8.38852V12.2038H10.9464C11.1589 12.2038 11.3354 12.2727 11.4761 12.4105C11.6167 12.5483 11.6871 12.7177 11.6871 12.9187C11.6871 13.1311 11.6167 13.3033 11.4761 13.4354Z" fill="#0071E6"/>
</svg>
