<svg width="56" height="36" viewBox="0 0 56 36" fill="none" xmlns="http://www.w3.org/2000/svg">
<rect width="56" height="36" rx="8" fill="url(#paint0_linear)"/>
<g opacity="0.01">
<rect x="29" y="17" width="23.6017" height="15.6099" fill="white"/>
</g>
<rect x="37.6895" y="19.7197" width="6.22601" height="10.1689" fill="#FF5F00"/>
<path d="M38.3305 24.8048C38.329 22.8208 39.2397 20.9462 40.8005 19.7212C38.1491 17.6375 34.3416 17.941 32.0537 20.4185C29.7659 22.8959 29.7659 26.7155 32.0537 29.1929C34.3416 31.6703 38.1491 31.9739 40.8005 29.8901C39.2393 28.6648 38.3284 26.7894 38.3305 24.8048Z" fill="#EB001B"/>
<path fill-rule="evenodd" clip-rule="evenodd" d="M50.6454 28.6046V28.813H50.6059V28.6046H50.5215V28.5615H50.7352V28.6046H50.6454ZM51.0604 28.5615V28.813H51.0155V28.6226L50.9454 28.7861H50.8969L50.8269 28.6226V28.813H50.7802V28.5615H50.8448L50.9203 28.7412L50.9957 28.5615H51.0604Z" fill="#F79E1B"/>
<path d="M51.2643 24.8053C51.2642 27.2813 49.8505 29.5398 47.6235 30.6218C45.3965 31.7037 42.7472 31.4192 40.8008 29.8889C42.3608 28.6629 43.2717 26.7886 43.2717 24.8044C43.2717 22.8203 42.3608 20.946 40.8008 19.72C42.7472 18.1897 45.3965 17.9051 47.6235 18.9871C49.8505 20.0691 51.2642 22.3276 51.2643 24.8035V24.8053Z" fill="#F79E1B"/>
<defs>
<linearGradient id="paint0_linear" x1="-28" y1="18" x2="4.7509" y2="68.9458" gradientUnits="userSpaceOnUse">
<stop stop-color="#838383"/>
<stop offset="1"/>
</linearGradient>
</defs>
</svg>
