<svg width="16" height="20" viewBox="0 0 16 20" fill="none" xmlns="http://www.w3.org/2000/svg">
<path fill-rule="evenodd" clip-rule="evenodd" d="M8.60474 12.7749C8.41382 12.9686 8.18001 13.0654 7.90332 13.0654C7.62109 13.0654 7.38452 12.9686 7.1936 12.7749C7.00269 12.5812 6.90723 12.3516 6.90723 12.0859V4.04248L6.99854 2.83057L6.56689 3.48633L5.5874 4.52393C5.41585 4.71208 5.2028 4.80615 4.94824 4.80615C4.72135 4.80615 4.52214 4.73006 4.35059 4.57788C4.17904 4.4257 4.09326 4.22786 4.09326 3.98438C4.09326 3.86263 4.11678 3.75472 4.16382 3.66064C4.21086 3.56657 4.27588 3.47526 4.35889 3.38672L7.11475 0.74707C7.24202 0.619792 7.37069 0.529867 7.50073 0.477295C7.63078 0.424723 7.76497 0.398438 7.90332 0.398438C8.03613 0.398438 8.16756 0.424723 8.29761 0.477295C8.42765 0.529867 8.55632 0.619792 8.68359 0.74707L11.4395 3.38672C11.5225 3.47526 11.5875 3.56657 11.6345 3.66064C11.6816 3.75472 11.7051 3.86263 11.7051 3.98438C11.7051 4.22786 11.6179 4.4257 11.4436 4.57788C11.2693 4.73006 11.0715 4.80615 10.8501 4.80615C10.5955 4.80615 10.3825 4.71208 10.2109 4.52393L9.23145 3.48633L8.7998 2.83057L8.89111 4.04248V12.0859C8.89111 12.3516 8.79565 12.5812 8.60474 12.7749ZM14.9092 19.1582C14.4001 19.6673 13.6668 19.9219 12.7095 19.9219H3.08057C2.12874 19.9219 1.39689 19.6687 0.88501 19.1624C0.373128 18.656 0.117188 17.9269 0.117188 16.9751V9.03125C0.117188 8.07943 0.373128 7.35034 0.88501 6.84399C1.39689 6.33765 2.12874 6.08447 3.08057 6.08447H5.24707V8.30078H3.33789C3.01139 8.30078 2.76375 8.38241 2.59497 8.54565C2.42619 8.7089 2.3418 8.96484 2.3418 9.31348V16.6846C2.3418 17.0332 2.42619 17.2905 2.59497 17.4565C2.76375 17.6226 3.01139 17.7056 3.33789 17.7056H12.4438C12.7703 17.7056 13.0194 17.6226 13.1909 17.4565C13.3625 17.2905 13.4482 17.0332 13.4482 16.6846V9.31348C13.4482 8.96484 13.3625 8.7089 13.1909 8.54565C13.0194 8.38241 12.7703 8.30078 12.4438 8.30078H10.5928V6.08447H12.7095C13.6668 6.08447 14.4001 6.33903 14.9092 6.84814C15.4183 7.35726 15.6729 8.08496 15.6729 9.03125V16.9751C15.6729 17.9214 15.4183 18.6491 14.9092 19.1582Z" fill="#0071E6"/>
</svg>
