<svg width="56" height="36" viewBox="0 0 56 36" fill="none" xmlns="http://www.w3.org/2000/svg">
<rect width="56" height="36" rx="8" fill="url(#paint0_linear)"/>
<path d="M28.3619 18.1836L26.5391 28.8806H29.4544L31.2787 18.1836H28.3619Z" fill="white"/>
<path d="M24.0948 18.1956L21.2395 25.4906L20.935 24.3891C20.3719 23.062 18.7733 21.1559 16.8965 19.9547L19.5074 28.8753L22.5921 28.8701L27.1833 18.1934L24.0948 18.1956Z" fill="white"/>
<path d="M19.8276 18.9608C19.6582 18.3092 19.167 18.115 18.5574 18.0918H14.0375L14 18.3047C17.5174 19.158 19.8449 21.2141 20.8106 23.6862L19.8276 18.9608Z" fill="white"/>
<path d="M37.1859 20.2345C38.1397 20.2195 38.8311 20.4279 39.3679 20.6439L39.6311 20.7676L40.0255 18.4491C39.4482 18.2324 38.5431 18 37.4139 18C34.5331 18 32.5026 19.4509 32.4868 21.5302C32.4681 23.0666 33.9332 23.9243 35.04 24.4365C36.1759 24.9614 36.5568 25.295 36.5516 25.7637C36.5426 26.4797 35.6458 26.8082 34.8083 26.8082C33.6408 26.8082 33.0207 26.647 32.0632 26.248L31.6875 26.0771L31.2773 28.4713C31.9597 28.7704 33.2186 29.0276 34.5256 29.0411C37.5901 29.0411 39.5816 27.6075 39.6026 25.3858C39.6154 24.1703 38.8378 23.2428 37.153 22.4817C36.1332 21.9853 35.5093 21.6554 35.5153 21.1545C35.5153 20.7099 36.0447 20.2345 37.1859 20.2345Z" fill="white"/>
<path fill-rule="evenodd" clip-rule="evenodd" d="M45.2565 18.1953H47.509L49.8679 28.8863H47.1633C47.1633 28.8863 46.8949 27.6573 46.8079 27.2839C46.5837 27.2839 45.6449 27.2827 44.7611 27.2815C43.975 27.2804 43.2323 27.2794 43.0745 27.2794C42.9613 27.5681 42.4619 28.8863 42.4619 28.8863H39.4004L43.7291 19.0831C44.0365 18.3858 44.5569 18.1953 45.2565 18.1953ZM45.075 22.1004C45.075 22.1004 44.1535 24.4758 43.9136 25.0899H46.3355L45.6599 22.0014L45.4635 21.0791C45.3897 21.2761 45.2914 21.5317 45.2121 21.7381C45.1292 21.9536 45.067 22.1153 45.075 22.1004Z" fill="white"/>
<defs>
<linearGradient id="paint0_linear" x1="-28" y1="18" x2="4.7509" y2="68.9458" gradientUnits="userSpaceOnUse">
<stop stop-color="#0058FF"/>
<stop offset="1" stop-color="#160076"/>
</linearGradient>
</defs>
</svg>
